HIERARCHY
ROOT SpineBase
{
  OFFSET 0.000000 0.000000 0.000000
  CHANNELS 6 Xposition Yposition Zposition Zrotation Xrotation Yrotation
  JOINT SpineMid
  {
    OFFSET 0.000000 31.875263 0.000000
    CHANNELS 3 Zrotation Xrotation Yrotation
    JOINT SpineShoulder
    {
      OFFSET -0.068467 23.610839 -0.845414
      CHANNELS 3 Zrotation Xrotation Yrotation
      JOINT Neck
      {
        OFFSET -0.026549 7.816569 -0.650955
        CHANNELS 3 Zrotation Xrotation Yrotation
        JOINT Head
        {
          OFFSET -5.723268 10.629365 3.607864
          CHANNELS 3 Zrotation Xrotation Yrotation
          End Site
          {
            OFFSET 0 0 0
          }
        }
      }
      JOINT ShoulderLeft
      {
        OFFSET -9.571565 -3.672698 12.590785
        CHANNELS 3 Zrotation Xrotation Yrotation
        JOINT ElbowLeft
        {
          OFFSET -4.256976 -29.572285 -0.594010
          CHANNELS 3 Zrotation Xrotation Yrotation
          JOINT WristLeft
          {
            OFFSET -8.208080 -1.179791 -28.186113
            CHANNELS 3 Zrotation Xrotation Yrotation
            JOINT HandLeft
            {
              OFFSET 6.113988 -0.824388 -1.335555
              CHANNELS 3 Zrotation Xrotation Yrotation
              JOINT HandTipLeft
              {
                OFFSET 0.527547 0.599451 -2.379689
                CHANNELS 3 Zrotation Xrotation Yrotation
                End Site
                {
                  OFFSET 0 0 0
                }
              }
              JOINT ThumbLeft
              {
                OFFSET 1.299764 1.574022 -3.084165
                CHANNELS 3 Zrotation Xrotation Yrotation
                End Site
                {
                  OFFSET 0 0 0
                }
              }
            }
          }
        }
      }
      JOINT ShoulderRight
      {
        OFFSET 9.045960 -2.665276 -13.491111
        CHANNELS 3 Zrotation Xrotation Yrotation
        JOINT ElbowRight
        {
          OFFSET 7.635541 -21.884420 -7.619361
          CHANNELS 3 Zrotation Xrotation Yrotation
          JOINT WristRight
          {
            OFFSET -28.035127 -10.082900 2.948763
            CHANNELS 3 Zrotation Xrotation Yrotation
            JOINT HandRight
            {
              OFFSET -3.626979 0.480270 1.131025
              CHANNELS 3 Zrotation Xrotation Yrotation
              JOINT HandTipRight
              {
                OFFSET -3.481904 -2.149641 2.208884
                CHANNELS 3 Zrotation Xrotation Yrotation
                End Site
                {
                  OFFSET 0 0 0
                }
              }
              JOINT ThumbRight
              {
                OFFSET 0.748194 2.938877 0.535668
                CHANNELS 3 Zrotation Xrotation Yrotation
                End Site
                {
                  OFFSET 0 0 0
                }
              }
            }
          }
        }
      }
    }
  }
  JOINT HipLeft
  {
    OFFSET -3.637360 0.033795 0.881731
    CHANNELS 3 Zrotation Xrotation Yrotation
    JOINT KneeLeft
    {
      OFFSET -2.096039 -36.132490 3.329197
      CHANNELS 3 Zrotation Xrotation Yrotation
      JOINT AnkleLeft
      {
        OFFSET 3.355605 -36.091578 2.770835
        CHANNELS 3 Zrotation Xrotation Yrotation
        JOINT FootLeft
        {
          OFFSET -4.732216 -6.579494 -6.734135
          CHANNELS 3 Zrotation Xrotation Yrotation
          End Site
          {
            OFFSET 0 0 0
          }
        }
      }
    }
  }
  JOINT HipRight
  {
    OFFSET 2.652178 2.029355 -8.673117
    CHANNELS 3 Zrotation Xrotation Yrotation
    JOINT KneeRight
    {
      OFFSET 7.250471 -35.358432 -6.681375
      CHANNELS 3 Zrotation Xrotation Yrotation
      JOINT AnkleRight
      {
        OFFSET 5.408029 -36.030505 0.349699
        CHANNELS 3 Zrotation Xrotation Yrotation
        JOINT FootRight
        {
          OFFSET -5.475357 -6.280028 -6.794781
          CHANNELS 3 Zrotation Xrotation Yrotation
          End Site
          {
            OFFSET 0 0 0
          }
        }
      }
    }
  }
}
MOTION
Frames: 10
Frame Time: 0.033333
44.473917 80.924020 364.655918 -0.000000 0.000000 56.644841 -0.000000 0.000000 -56.644841 -0.000000 0.000000 0.000000 -0.000000 0.000000 0.000000 0.000000 0.000000 0.000000 -0.000000 0.000000 0.000000 -0.000000 0.000000 0.000000 -0.000000 0.000000 0.000000 -0.000000 0.000000 0.000000 0.000000 0.000000 0.000000 0.000000 0.000000 0.000000 -0.000000 0.000000 0.000000 -0.000000 0.000000 0.000000 -0.000000 0.000000 0.000000 -0.000000 0.000000 0.000000 0.000000 0.000000 0.000000 0.000000 0.000000 0.000000 -0.000000 0.000000 -56.644841 -0.000000 0.000000 0.000000 -0.000000 0.000000 0.000000 0.000000 0.000000 0.000000 -0.000000 0.000000 -56.644841 -0.000000 0.000000 0.000000 -0.000000 0.000000 0.000000 0.000000 0.000000 0.000000
44.438484 81.029828 364.204813 -0.138127 0.550739 56.561434 -0.383470 -0.418742 -56.562172 -0.000000 0.000000 0.000000 -0.000000 0.000000 0.000000 0.000000 0.000000 0.000000 -0.000000 0.000000 0.000000 -0.147095 0.343521 1.040833 -1.456718 -1.182546 -5.415086 1.335535 3.685491 1.845186 0.000000 0.000000 0.000000 0.000000 0.000000 0.000000 -0.000000 0.000000 0.000000 -0.000000 0.000000 0.000000 0.476131 0.353480 1.489092 -0.980132 0.020764 -2.572013 0.000000 0.000000 0.000000 0.000000 0.000000 0.000000 -0.383470 -0.418742 -56.562172 -0.000000 0.000000 0.000000 -1.471706 0.956402 0.816240 0.000000 0.000000 0.000000 -1.296425 -0.784305 -56.732196 0.195231 0.963803 0.158798 -2.071585 2.073390 0.455114 0.000000 0.000000 0.000000
44.404989 81.122955 363.800509 -0.258198 1.036753 56.518776 -0.722314 -0.787280 -56.521403 -0.000000 0.000000 0.000000 -0.000000 0.000000 0.000000 0.000000 0.000000 0.000000 -0.000000 0.000000 0.000000 -0.242192 0.556114 1.696511 -2.079398 -1.751506 -8.493680 1.531641 5.854825 1.949254 0.000000 0.000000 0.000000 0.000000 0.000000 0.000000 -0.000000 0.000000 0.000000 0.864382 0.219198 -0.366215 0.121459 0.432379 2.759408 -1.911514 -0.166462 -3.989481 0.000000 0.000000 0.000000 0.000000 0.000000 0.000000 -1.500997 -1.248068 -56.487001 0.045796 0.903538 -0.048593 -2.379996 1.489217 1.357652 0.000000 0.000000 0.000000 -2.442415 -1.475405 -56.857785 0.364760 1.816058 0.296636 -4.156520 4.123349 0.982907 0.000000 0.000000 0.000000
44.373431 81.203401 363.443006 -0.359956 1.457034 56.510908 -0.350557 -0.518250 -56.508486 0.121165 -0.878705 0.002719 -0.000000 0.000000 0.000000 0.000000 0.000000 0.000000 -0.000000 0.000000 0.000000 -0.284510 0.647532 1.990383 -1.932100 -1.906897 -9.570807 0.972026 6.418981 0.763930 0.000000 0.000000 0.000000 0.000000 0.000000 0.000000 -0.000000 0.000000 0.000000 1.080952 0.304309 -0.547641 0.456844 0.594033 3.320742 -2.840883 -0.530389 -4.451662 0.000000 0.000000 0.000000 0.000000 0.000000 0.000000 -2.118318 -1.760769 -56.474934 0.061206 1.280778 -0.069419 -2.737964 1.628211 1.619124 0.000000 0.000000 0.000000 -3.439542 -2.071146 -57.009378 0.509649 2.557624 0.414733 -6.240950 6.129213 1.578140 0.000000 0.000000 0.000000
44.343810 81.271167 363.132303 -0.443186 1.810765 56.533399 -0.413875 -0.615662 -56.529142 0.157814 -1.125984 0.003935 -0.000000 0.000000 0.000000 0.000000 0.000000 0.000000 -0.000000 0.000000 0.000000 -0.273825 0.622017 1.932833 -1.023523 -1.690829 -8.771025 -0.273018 5.425142 -1.534666 0.000000 0.000000 0.000000 0.000000 0.000000 0.000000 -0.000000 0.000000 0.000000 1.145727 0.372742 -0.725907 0.990742 0.722914 3.400236 -3.786111 -1.062238 -4.079688 0.000000 0.000000 0.000000 0.000000 0.000000 0.000000 -2.647062 -2.196731 -56.497649 0.071526 1.608079 -0.087821 -2.552870 1.386257 1.601495 0.000000 0.000000 0.000000 -4.288852 -2.570505 -57.177110 0.630813 3.189448 0.514134 -8.311527 8.072732 2.233732 0.000000 0.000000 0.000000
44.316128 81.326252 362.868402 -0.507716 2.097304 56.583057 -0.450041 -0.674482 -56.576932 -0.021416 -0.488454 -0.013083 0.214137 -0.861681 0.016506 0.000000 0.000000 0.000000 0.214137 -0.861681 0.016506 -0.210202 0.478575 1.521828 0.702950 -1.008697 -6.024200 -2.392161 3.030323 -5.015399 0.000000 0.000000 0.000000 0.000000 0.000000 0.000000 0.214137 -0.861681 0.016506 1.054528 0.424441 -0.899621 1.731475 0.818988 3.029292 -4.747438 -1.768577 -2.944199 0.000000 0.000000 0.000000 0.000000 0.000000 0.000000 -3.087037 -2.554819 -56.549844 0.856515 1.392424 -0.111803 -2.605335 1.250704 1.314758 0.000000 0.000000 0.000000 -4.990992 -2.973244 -57.353213 0.729021 3.712476 0.595717 -10.355770 9.938710 2.941217 0.000000 0.000000 0.000000
44.288302 81.362056 362.658939 -0.559807 2.286804 56.679793 -0.424250 -0.668636 -56.671964 -0.002325 -0.585438 -0.013764 0.236617 -0.979477 0.018388 0.000000 0.000000 0.000000 0.236617 -0.979477 0.018388 -0.000000 0.000000 0.000000 2.909188 0.406001 -1.434768 -5.839890 -2.644087 -7.809784 0.000000 0.000000 0.000000 0.000000 0.000000 0.000000 0.236617 -0.979477 0.018388 0.673339 0.496847 -1.208709 3.920285 1.375416 3.134189 -7.408687 -3.590555 -1.577151 0.000000 0.000000 0.000000 0.000000 0.000000 0.000000 -3.397054 -2.803365 -56.649932 0.963787 1.587768 -0.122431 1.193581 -2.370568 -0.042433 0.000000 0.000000 0.000000 -5.479334 -3.273719 -57.550051 0.777574 4.097503 0.660437 -15.886807 14.685408 5.139832 0.000000 0.000000 0.000000
44.269615 81.391344 362.505676 -0.575884 2.408816 56.778343 -0.404557 -0.624453 -56.770375 0.016732 -0.651936 -0.014247 0.258609 -1.076219 0.020294 0.000000 0.000000 0.000000 0.258609 -1.076219 0.020294 -0.000000 0.000000 0.000000 7.044738 2.431678 4.330914 -11.023196 -5.787416 -13.425384 0.000000 0.000000 0.000000 0.000000 0.000000 0.000000 0.258609 -1.076219 0.020294 0.249699 0.519704 -1.383285 5.041756 1.419557 2.198675 -8.824119 -3.014213 -2.377166 0.000000 0.000000 0.000000 0.000000 0.000000 0.000000 -3.614184 -2.977075 -56.748537 1.024749 1.801651 -0.126733 6.571173 -7.789937 -1.523536 0.000000 0.000000 0.000000 -5.835215 -3.446980 -57.716894 0.824558 4.369503 0.703045 -18.018816 16.492704 6.026379 0.000000 0.000000 0.000000
44.246340 81.408568 362.378511 -0.579965 2.499244 56.781788 -0.368448 -0.563844 -56.773828 0.078568 -0.672491 -0.009599 1.436422 -0.353667 0.085155 0.000000 0.000000 0.000000 0.231701 -1.209541 0.017618 0.287926 -0.752649 -1.986805 11.611542 7.400618 15.639639 -20.166625 -10.200698 -23.950633 0.000000 0.000000 0.000000 0.000000 0.000000 0.000000 0.231701 -1.209541 0.017618 -0.123799 0.479594 -1.366691 4.907398 0.770184 -0.701517 -10.781415 -1.674570 -3.603899 0.000000 0.000000 0.000000 0.000000 0.000000 0.000000 -3.813445 -3.116954 -56.752834 1.074363 1.965850 -0.135470 6.767645 -7.575221 -2.004694 0.000000 0.000000 0.000000 -6.082052 -3.556809 -57.763846 0.866089 4.546510 0.728138 -18.448293 16.882425 6.191142 0.000000 0.000000 0.000000
44.224050 81.422310 362.279102 -0.571272 2.570106 56.915764 -0.324273 -0.515280 -56.906931 0.155969 -0.627363 -0.001297 2.225813 0.162578 0.164980 0.000000 0.000000 0.000000 0.160589 -1.389718 0.010590 0.483887 -1.284381 -3.724972 15.453908 13.774781 28.131102 -30.556381 -9.082425 -40.218782 0.000000 0.000000 0.000000 0.000000 0.000000 0.000000 -0.084124 -0.657179 0.346466 -0.329690 -0.261733 -1.796321 5.512515 0.055130 -5.078564 -11.059883 -1.018946 -0.380454 0.000000 0.000000 0.000000 0.000000 0.000000 0.000000 -3.966822 -3.210599 -56.886502 1.065794 2.080959 -0.143827 4.020534 -4.198359 -1.842773 0.000000 0.000000 0.000000 -6.323811 -3.627190 -57.937980 0.908587 4.718295 0.751853 -18.500609 16.763900 6.311036 0.000000 0.000000 0.000000
